<mxfile host="app.diagrams.net" agent="Mozilla/5.0 (Windows NT 10.0; Win64; x64) AppleWebKit/537.36 (KHTML, like Gecko) Chrome/135.0.0.0 Safari/537.36" version="26.2.14">
  <diagram name="Page-1" id="90uwFxcRA9u-Upylh4PK">
    <mxGraphModel dx="2276" dy="743" grid="1" gridSize="10" guides="1" tooltips="1" connect="1" arrows="1" fold="1" page="1" pageScale="1" pageWidth="850" pageHeight="1100" background="light-dark(#FFFFFF,#FFFFFF)" math="0" shadow="0">
      <root>
        <mxCell id="0" />
        <mxCell id="1" parent="0" />
        <mxCell id="oBCV2FoEur7ragl6BGmA-1" value="Widget&lt;br&gt;-----------------------------&lt;br&gt;stocknum (PK)&lt;br&gt;manufacturer&lt;br&gt;description&lt;br&gt;weight&lt;br&gt;price&lt;br&gt;inventory" style="rounded=0;whiteSpace=wrap;html=1;" parent="1" vertex="1">
          <mxGeometry x="90" y="280" width="120" height="120" as="geometry" />
        </mxCell>
        <mxCell id="oBCV2FoEur7ragl6BGmA-2" value="Note&lt;br&gt;-----------------------------&lt;br&gt;date (PK, &lt;font style=&quot;color: light-dark(rgb(0, 0, 0), rgb(0, 0, 255));&quot;&gt;with &lt;/font&gt;customer id)&lt;br&gt;text&lt;br&gt;&lt;div&gt;&lt;br&gt;&lt;/div&gt;" style="rounded=0;whiteSpace=wrap;html=1;" parent="1" vertex="1">
          <mxGeometry x="512.5" y="440" width="120" height="90" as="geometry" />
        </mxCell>
        <mxCell id="oBCV2FoEur7ragl6BGmA-8" style="edgeStyle=orthogonalEdgeStyle;rounded=0;orthogonalLoop=1;jettySize=auto;html=1;entryX=1;entryY=0.5;entryDx=0;entryDy=0;" parent="1" source="oBCV2FoEur7ragl6BGmA-3" target="oBCV2FoEur7ragl6BGmA-6" edge="1">
          <mxGeometry relative="1" as="geometry" />
        </mxCell>
        <mxCell id="oBCV2FoEur7ragl6BGmA-19" value="N" style="edgeLabel;html=1;align=center;verticalAlign=middle;resizable=0;points=[];" parent="oBCV2FoEur7ragl6BGmA-8" vertex="1" connectable="0">
          <mxGeometry x="-0.0182" relative="1" as="geometry">
            <mxPoint as="offset" />
          </mxGeometry>
        </mxCell>
        <mxCell id="oBCV2FoEur7ragl6BGmA-10" style="edgeStyle=orthogonalEdgeStyle;rounded=0;orthogonalLoop=1;jettySize=auto;html=1;exitX=0;exitY=1;exitDx=0;exitDy=0;" parent="1" source="oBCV2FoEur7ragl6BGmA-3" target="oBCV2FoEur7ragl6BGmA-5" edge="1">
          <mxGeometry relative="1" as="geometry" />
        </mxCell>
        <mxCell id="oBCV2FoEur7ragl6BGmA-21" value="N" style="edgeLabel;html=1;align=center;verticalAlign=middle;resizable=0;points=[];" parent="oBCV2FoEur7ragl6BGmA-10" vertex="1" connectable="0">
          <mxGeometry x="0.0048" relative="1" as="geometry">
            <mxPoint x="1" as="offset" />
          </mxGeometry>
        </mxCell>
        <mxCell id="oBCV2FoEur7ragl6BGmA-12" style="edgeStyle=orthogonalEdgeStyle;rounded=0;orthogonalLoop=1;jettySize=auto;html=1;exitX=0.5;exitY=1;exitDx=0;exitDy=0;entryX=0.5;entryY=0;entryDx=0;entryDy=0;" parent="1" source="oBCV2FoEur7ragl6BGmA-3" target="oBCV2FoEur7ragl6BGmA-7" edge="1">
          <mxGeometry relative="1" as="geometry" />
        </mxCell>
        <mxCell id="oBCV2FoEur7ragl6BGmA-23" value="1" style="edgeLabel;html=1;align=center;verticalAlign=middle;resizable=0;points=[];" parent="oBCV2FoEur7ragl6BGmA-12" vertex="1" connectable="0">
          <mxGeometry x="-0.24" y="2" relative="1" as="geometry">
            <mxPoint as="offset" />
          </mxGeometry>
        </mxCell>
        <mxCell id="oBCV2FoEur7ragl6BGmA-3" value="Customer&lt;br&gt;-----------------------------&lt;br&gt;id (PK)&lt;br&gt;name (salutation, first, last, suffix)&lt;br&gt;address (street, city, state, zip)&lt;br&gt;phone numbers (multi-valued)" style="rounded=0;whiteSpace=wrap;html=1;" parent="1" vertex="1">
          <mxGeometry x="510" y="40" width="125" height="130" as="geometry" />
        </mxCell>
        <mxCell id="oBCV2FoEur7ragl6BGmA-4" value="Employee&lt;br&gt;-----------------------------&lt;br&gt;id (PK)&lt;br&gt;ssn&lt;br&gt;name (salutation, first last, suffix)&lt;br&gt;address (street, city, state, zip)" style="rounded=0;whiteSpace=wrap;html=1;" parent="1" vertex="1">
          <mxGeometry x="70" y="45" width="120" height="120" as="geometry" />
        </mxCell>
        <mxCell id="oBCV2FoEur7ragl6BGmA-5" value="Interested_In" style="rhombus;whiteSpace=wrap;html=1;" parent="1" vertex="1">
          <mxGeometry x="310" y="225" width="90" height="90" as="geometry" />
        </mxCell>
        <mxCell id="oBCV2FoEur7ragl6BGmA-9" style="edgeStyle=orthogonalEdgeStyle;rounded=0;orthogonalLoop=1;jettySize=auto;html=1;exitX=0;exitY=0.5;exitDx=0;exitDy=0;entryX=1;entryY=0.5;entryDx=0;entryDy=0;" parent="1" source="oBCV2FoEur7ragl6BGmA-6" target="oBCV2FoEur7ragl6BGmA-4" edge="1">
          <mxGeometry relative="1" as="geometry">
            <Array as="points">
              <mxPoint x="200" y="105" />
            </Array>
          </mxGeometry>
        </mxCell>
        <mxCell id="oBCV2FoEur7ragl6BGmA-20" value="1" style="edgeLabel;html=1;align=center;verticalAlign=middle;resizable=0;points=[];" parent="oBCV2FoEur7ragl6BGmA-9" vertex="1" connectable="0">
          <mxGeometry y="1" relative="1" as="geometry">
            <mxPoint as="offset" />
          </mxGeometry>
        </mxCell>
        <mxCell id="oBCV2FoEur7ragl6BGmA-6" value="Assigned_To" style="rhombus;whiteSpace=wrap;html=1;" parent="1" vertex="1">
          <mxGeometry x="310" y="60" width="90" height="90" as="geometry" />
        </mxCell>
        <mxCell id="oBCV2FoEur7ragl6BGmA-18" style="edgeStyle=orthogonalEdgeStyle;rounded=0;orthogonalLoop=1;jettySize=auto;html=1;" parent="1" source="oBCV2FoEur7ragl6BGmA-7" target="oBCV2FoEur7ragl6BGmA-2" edge="1">
          <mxGeometry relative="1" as="geometry" />
        </mxCell>
        <mxCell id="oBCV2FoEur7ragl6BGmA-24" value="N" style="edgeLabel;html=1;align=center;verticalAlign=middle;resizable=0;points=[];" parent="oBCV2FoEur7ragl6BGmA-18" vertex="1" connectable="0">
          <mxGeometry x="-0.2471" y="2" relative="1" as="geometry">
            <mxPoint as="offset" />
          </mxGeometry>
        </mxCell>
        <mxCell id="oBCV2FoEur7ragl6BGmA-7" value="Has_Note" style="rhombus;whiteSpace=wrap;html=1;" parent="1" vertex="1">
          <mxGeometry x="527.5" y="260" width="90" height="95" as="geometry" />
        </mxCell>
        <mxCell id="oBCV2FoEur7ragl6BGmA-11" style="edgeStyle=orthogonalEdgeStyle;rounded=0;orthogonalLoop=1;jettySize=auto;html=1;entryX=1.008;entryY=0.633;entryDx=0;entryDy=0;entryPerimeter=0;" parent="1" source="oBCV2FoEur7ragl6BGmA-5" target="oBCV2FoEur7ragl6BGmA-1" edge="1">
          <mxGeometry relative="1" as="geometry" />
        </mxCell>
        <mxCell id="oBCV2FoEur7ragl6BGmA-22" value="N" style="edgeLabel;html=1;align=center;verticalAlign=middle;resizable=0;points=[];" parent="oBCV2FoEur7ragl6BGmA-11" vertex="1" connectable="0">
          <mxGeometry x="-0.1677" relative="1" as="geometry">
            <mxPoint as="offset" />
          </mxGeometry>
        </mxCell>
        <mxCell id="oBCV2FoEur7ragl6BGmA-25" value="&lt;p class=&quot;&quot; data-end=&quot;1666&quot; data-start=&quot;1648&quot;&gt;&lt;strong data-end=&quot;1664&quot; data-start=&quot;1648&quot;&gt;&lt;font style=&quot;color: light-dark(rgb(0, 0, 0), rgb(0, 0, 0));&quot;&gt;Assumptions:&lt;/font&gt;&lt;/strong&gt;&lt;/p&gt;&lt;ul data-end=&quot;2028&quot; data-start=&quot;1669&quot;&gt;&lt;li class=&quot;&quot; data-end=&quot;1756&quot; data-start=&quot;1669&quot;&gt;&lt;p class=&quot;&quot; data-end=&quot;1756&quot; data-start=&quot;1671&quot;&gt;&lt;font style=&quot;color: light-dark(rgb(0, 0, 0), rgb(0, 0, 0));&quot;&gt;&lt;b&gt;Customer ID, Widget stocknum, and Employee ID are unique and serve as primary keys.&lt;/b&gt;&lt;/font&gt;&lt;/p&gt;&lt;/li&gt;&lt;li class=&quot;&quot; data-end=&quot;1860&quot; data-start=&quot;1759&quot;&gt;&lt;p class=&quot;&quot; data-end=&quot;1860&quot; data-start=&quot;1761&quot;&gt;&lt;font style=&quot;color: light-dark(rgb(0, 0, 0), rgb(0, 0, 0));&quot;&gt;&lt;b&gt;Notes are uniquely identified by a combination of customer ID and the date the note was recorded.&lt;/b&gt;&lt;/font&gt;&lt;/p&gt;&lt;/li&gt;&lt;li class=&quot;&quot; data-end=&quot;1939&quot; data-start=&quot;1863&quot;&gt;&lt;p class=&quot;&quot; data-end=&quot;1939&quot; data-start=&quot;1865&quot;&gt;&lt;font style=&quot;color: light-dark(rgb(0, 0, 0), rgb(0, 0, 0));&quot;&gt;&lt;b&gt;Each customer is assigned to exactly one primary salesperson (employee).&lt;/b&gt;&lt;/font&gt;&lt;/p&gt;&lt;/li&gt;&lt;li class=&quot;&quot; data-end=&quot;2028&quot; data-start=&quot;1942&quot;&gt;&lt;p class=&quot;&quot; data-end=&quot;2028&quot; data-start=&quot;1944&quot;&gt;&lt;font style=&quot;color: light-dark(rgb(0, 0, 0), rgb(0, 0, 0));&quot;&gt;&lt;b&gt;Each customer can have multiple phone numbers and be interested in multiple widgets.&lt;/b&gt;&lt;/font&gt;&lt;/p&gt;&lt;/li&gt;&lt;/ul&gt;" style="text;html=1;align=center;verticalAlign=middle;resizable=0;points=[];autosize=1;" parent="1" vertex="1">
          <mxGeometry x="-2.5" y="530" width="620" height="160" as="geometry" />
        </mxCell>
      </root>
    </mxGraphModel>
  </diagram>
</mxfile>
